<svg xmlns="http://www.w3.org/2000/svg" width="1024" height="1024" viewBox="0 0 1024 1024" version="1.1">
	<path d="M 199.047 129.132 C 163.641 135.038, 134.466 164.771, 129.018 200.500 C 128.275 205.376, 128.034 301.241, 128.226 516.500 L 128.500 825.500 130.738 832.695 C 140.387 863.712, 161.227 884.407, 191.711 893.242 L 199.500 895.500 512 895.500 L 824.500 895.500 832.157 893.279 C 847.907 888.709, 859.966 881.714, 870.840 870.840 C 881.714 859.966, 888.709 847.907, 893.279 832.157 L 895.500 824.500 895.500 512 L 895.500 199.500 893.242 191.711 C 884.407 161.227, 863.712 140.387, 832.695 130.738 L 825.500 128.500 515 128.361 C 332.518 128.280, 202.252 128.598, 199.047 129.132 M 336.500 293.633 C 313.971 297.103, 293.765 313.574, 283.075 337.183 C 277.348 349.830, 158.775 672.562, 157.358 679.359 C 154.503 693.054, 159.197 707.410, 169.656 716.969 C 179.098 725.598, 187.949 728.986, 201 728.964 C 214.591 728.941, 223.446 725.616, 231.649 717.455 C 239.593 709.552, 240.494 707.449, 254.017 665.250 L 262.109 640 344.499 640 L 426.889 640 430.422 651.250 C 441.623 686.913, 448.176 705.600, 451.058 710.090 C 459.080 722.591, 471.569 728.976, 488 728.976 C 517.005 728.976, 535.113 706.309, 528.502 678.274 C 526.634 670.348, 408.967 343.997, 404.431 334.160 C 399.994 324.537, 393.408 315.421, 386.268 309.023 C 380.125 303.518, 367.639 296.974, 359.653 295.075 C 354.137 293.763, 340.977 292.944, 336.500 293.633 M 587.109 300.554 C 577.681 303.137, 573.033 305.781, 566.597 312.223 C 561.129 317.696, 559.983 319.528, 557.654 326.528 L 554.984 334.556 555.242 512.528 L 555.500 690.500 557.768 696.105 C 562.804 708.554, 571.424 717.199, 583.775 722.188 L 589.500 724.500 669 724.500 C 742.444 724.500, 749.300 724.357, 759 722.618 C 813.180 712.910, 848.655 681.243, 859.955 632.500 C 863.213 618.448, 864.334 606.687, 863.703 593.200 C 862.434 566.077, 853.501 545.153, 834.810 525.523 C 824.895 515.111, 816.499 508.761, 805 502.979 C 797.203 499.059, 783.688 494.376, 777.489 493.446 C 775.020 493.076, 773 492.468, 773 492.095 C 773 491.721, 775.671 490.190, 778.935 488.692 C 793.381 482.061, 810.818 465.708, 817.797 452.247 C 823.199 441.827, 825.647 433.932, 827.599 420.642 C 832.472 387.459, 822.473 354.929, 800.500 332.480 C 785.415 317.068, 770.394 308.569, 747 302.208 L 737.500 299.625 665 299.351 C 603.541 299.118, 591.679 299.302, 587.109 300.554 M 644 422.872 L 644 469 671.750 468.985 C 692.975 468.974, 701.008 468.615, 705.913 467.459 C 726.686 462.562, 738.936 445.895, 738.985 422.460 C 739.030 401.170, 726.800 385.393, 705.500 379.263 C 701.927 378.234, 692.437 377.669, 672.250 377.283 L 644 376.743 644 422.872 M 343.692 386.750 C 343.458 387.163, 342.559 389.750, 341.694 392.500 C 339.417 399.743, 287.958 556.946, 287.321 558.605 C 286.867 559.788, 295.377 560, 343.393 560 C 380.263 560, 400 559.653, 400 559.005 C 400 558.458, 389.008 523.696, 375.574 481.755 C 362.140 439.815, 349.744 401.113, 348.027 395.750 C 344.949 386.135, 344.533 385.270, 343.692 386.750 M 644 592.989 L 644 640.134 686.750 639.740 C 733.228 639.310, 733.448 639.286, 746.268 633.225 C 758.685 627.355, 766.582 617.187, 769.531 603.270 C 774.389 580.343, 766.298 562.742, 746.600 553.387 C 733.461 547.148, 729.952 546.744, 684.750 546.270 L 644 545.843 644 592.989" stroke="none" fill="black" fill-rule="evenodd"/>
</svg>